<svg id="Layer_1" data-name="Layer 1" xmlns="http://www.w3.org/2000/svg" viewBox="0 0 32.13 32"><defs><style>.cls-1{fill:#fff;}</style></defs><title>icon_users</title><path class="cls-1" d="M12.13,18a9,9,0,1,1,9-9A9,9,0,0,1,12.13,18Zm0-16a7,7,0,1,0,7,7A7,7,0,0,0,12.13,2Z"/><path class="cls-1" d="M23.13,18V16a5,5,0,1,0,0-10V4A7,7,0,0,1,23.13,18Z"/><path class="cls-1" d="M32.13,30h-6V28h3.69l-0.74-5.2-3.2-.86L26.37,20l4.49,1.19Z"/><path class="cls-1" d="M24.25,32H0L1.23,21.58,6,20,6.57,22l-3.5,1.13L2.25,30H22l-0.82-6.91L17.68,22,18.3,20,23,21.58Z"/></svg>