<svg id="Layer_1" data-name="Layer 1" xmlns="http://www.w3.org/2000/svg" viewBox="0 0 126.49 135.4"><defs><style>.cls-1{fill:#eb1c22;}</style></defs><title>icon_promotional-service</title><path class="cls-1" d="M116.71,100.56H9.78A9.79,9.79,0,0,1,0,90.78v-81A9.79,9.79,0,0,1,9.78,0H116.71a9.79,9.79,0,0,1,9.78,9.78v81A9.79,9.79,0,0,1,116.71,100.56ZM9.78,5A4.79,4.79,0,0,0,5,9.78v81a4.79,4.79,0,0,0,4.78,4.78H116.71a4.79,4.79,0,0,0,4.78-4.78v-81A4.79,4.79,0,0,0,116.71,5H9.78Z"/><path d="M28.88,84.09a2.5,2.5,0,0,1-2.5-2.5V41.37H20.13V81.59a2.5,2.5,0,1,1-5,0V41.34a4.75,4.75,0,0,1,4.49-5H26.9a4.75,4.75,0,0,1,4.49,5V81.59A2.5,2.5,0,0,1,28.88,84.09Z"/><path d="M56.47,84.09a2.5,2.5,0,0,1-2.5-2.5V61.36H47.72V81.59a2.5,2.5,0,0,1-5,0V61.32a4.75,4.75,0,0,1,4.48-5h7.28a4.75,4.75,0,0,1,4.48,5V81.59A2.5,2.5,0,0,1,56.47,84.09Z"/><path d="M84,84.09a2.5,2.5,0,0,1-2.5-2.5V31.38H75.3V81.59a2.5,2.5,0,0,1-5,0V31.34a4.75,4.75,0,0,1,4.49-5h7.28a4.75,4.75,0,0,1,4.49,5V81.59A2.5,2.5,0,0,1,84,84.09Z"/><path d="M111.63,84.09a2.5,2.5,0,0,1-2.5-2.5V47.52h-6.25V81.59a2.5,2.5,0,1,1-5,0V47.49a4.75,4.75,0,0,1,4.49-5h7.28a4.75,4.75,0,0,1,4.49,5v34.1A2.5,2.5,0,0,1,111.63,84.09Z"/><path d="M115.88,84.09H14.43a2.5,2.5,0,0,1,0-5H115.88A2.5,2.5,0,1,1,115.88,84.09Z"/><path class="cls-1" d="M90.91,135.4H35.4a2.5,2.5,0,0,1-2.5-2.5c0-7.41,9.06-13.57,22.3-15.39V101.06a2.5,2.5,0,0,1,5,0v18.68a2.5,2.5,0,0,1-2.26,2.49c-10.17,1-17,4.56-19.25,8.17H87.63c-2.23-3.61-9.08-7.19-19.25-8.17a2.5,2.5,0,0,1-2.26-2.49V101.06a2.5,2.5,0,0,1,5,0v16.45c13.24,1.82,22.3,8,22.3,15.39A2.5,2.5,0,0,1,90.91,135.4Z"/></svg>