<svg id="Layer_1" data-name="Layer 1" xmlns="http://www.w3.org/2000/svg" viewBox="0 0 32 32"><defs><style>.cls-1{fill:#fff;}</style></defs><title>icon_tracks</title><path class="cls-1" d="M16,19a9,9,0,0,1-9-9V0H25V10A9,9,0,0,1,16,19ZM9,2v8a7,7,0,0,0,14,0V2H9Z"/><path class="cls-1" d="M16,15a5,5,0,0,1-5-5V5h2v5a3,3,0,0,0,3,3v2Z"/><path class="cls-1" d="M15,23.5h2V31H15V23.5Z"/><path class="cls-1" d="M7,30H25v2H7V30Z"/><path class="cls-1" d="M27,10V8a3,3,0,0,0,3-3V4H27V2h5V5A5,5,0,0,1,27,10Z"/><path class="cls-1" d="M5,10A5,5,0,0,1,0,5V2H5V4H2V5A3,3,0,0,0,5,8v2Z"/><path class="cls-1" d="M16,25a4,4,0,0,1-4-4h2a2,2,0,0,0,4,0h2A4,4,0,0,1,16,25Z"/></svg>