<svg id="Layer_1" data-name="Layer 1" xmlns="http://www.w3.org/2000/svg" viewBox="0 0 32.1 31.68"><defs><style>.cls-1{fill:#fff;}</style></defs><title>icon_artists</title><path class="cls-1" d="M22.43,23.26L15.05,16.1V5.68h2v9.58l6.77,6.57Z" transform="translate(0 0)"/><path class="cls-1" d="M16.13,31.67A16,16,0,0,1,4.79,27l1.41-1.41a14,14,0,0,0,17.62,1.78L24.93,29A15.91,15.91,0,0,1,16.13,31.67Z" transform="translate(0 0)"/><path class="cls-1" d="M29.45,24.5l-1.67-1.1A14,14,0,0,0,26,5.78l1.41-1.41A16,16,0,0,1,29.45,24.5Z" transform="translate(0 0)"/><path class="cls-1" d="M32.1,15.69h-2A14.1,14.1,0,0,0,18.8,2l0.4-2A16.1,16.1,0,0,1,32.1,15.69Z" transform="translate(0 0)"/><path class="cls-1" d="M16,31.68A16,16,0,0,1,12.8,0l0.4,2A14,14,0,0,0,16,29.68v2Z" transform="translate(0 0)"/></svg>