<svg id="Layer_1" data-name="Layer 1" xmlns="http://www.w3.org/2000/svg" viewBox="0 0 137.48 153.3"><defs><style>.cls-1{fill:#eb1c22;}</style></defs><title>icon_free-music</title><path d="M88.85,129.26H52.08a2.5,2.5,0,0,1-2.48-2.8c2.38-19.6-8.19-31.25-8.3-31.37a2.51,2.51,0,0,1-.5-0.81,35.44,35.44,0,1,1,57.9,2.49c-0.28.49-.59,1-0.93,1.59-3.06,5.16-8.17,13.8-6.44,28.1A2.5,2.5,0,0,1,88.85,129.26Zm-34-5H86.1c-1-14.32,4.19-23.08,7.37-28.45,0.35-.6.68-1.15,1-1.65a2.55,2.55,0,0,1,.21-0.31,30.13,30.13,0,0,0,6.42-18.68A30.43,30.43,0,1,0,45.26,92l0.1,0.17C47.42,94.56,56.1,105.94,54.83,124.26Z"/><path d="M66.47,128A2.5,2.5,0,0,1,64,125.65,230.47,230.47,0,0,0,54.82,76.3l0-.05a2.5,2.5,0,0,1,4.76-1.54v0C60.56,77.75,65,80,70,80s9.45-2.28,10.42-5.3a2.5,2.5,0,0,1,4.76,1.52C83.52,81.41,77.27,85,70,85a20.22,20.22,0,0,1-8-1.57A239.54,239.54,0,0,1,69,125.3,2.5,2.5,0,0,1,66.65,128H66.47Z"/><path d="M73.51,128H73.33A2.5,2.5,0,0,1,71,125.3a236,236,0,0,1,9.4-50.6,2.5,2.5,0,0,1,4.75,1.55A230.62,230.62,0,0,0,76,125.65,2.5,2.5,0,0,1,73.51,128Z"/><path class="cls-1" d="M13.63,116.27a2.5,2.5,0,0,1-.81-4.87l19.66-6.71a2.5,2.5,0,0,1,1.62,4.73l-19.66,6.71A2.51,2.51,0,0,1,13.63,116.27Z"/><path class="cls-1" d="M23.81,51.19a2.49,2.49,0,0,1-.76-0.12L1.74,44.31a2.5,2.5,0,1,1,1.51-4.77L24.56,46.3A2.5,2.5,0,0,1,23.81,51.19Z"/><path class="cls-1" d="M124.8,116.27a2.51,2.51,0,0,1-.81-0.13l-19.66-6.71a2.5,2.5,0,0,1,1.62-4.73l19.66,6.71A2.5,2.5,0,0,1,124.8,116.27Z"/><path class="cls-1" d="M113.67,51.19a2.5,2.5,0,0,1-.75-4.88l21.3-6.76a2.5,2.5,0,0,1,1.51,4.77l-21.3,6.76A2.49,2.49,0,0,1,113.67,51.19Z"/><path class="cls-1" d="M70.95,23.46a2.5,2.5,0,0,1-2.5-2.5V2.5a2.5,2.5,0,1,1,5,0V21A2.5,2.5,0,0,1,70.95,23.46Z"/><path d="M88.24,141.3h-35a2.5,2.5,0,0,1,0-5h35A2.5,2.5,0,0,1,88.24,141.3Z"/><path d="M83,153.3H58.49a2.5,2.5,0,0,1,0-5H83A2.5,2.5,0,0,1,83,153.3Z"/></svg>