<?xml version="1.0" encoding="UTF-8"?>
<svg width="39px" height="33px" viewBox="0 0 39 33" version="1.1" xmlns="http://www.w3.org/2000/svg" xmlns:xlink="http://www.w3.org/1999/xlink">
    <!-- Generator: Sketch 51.1 (57501) - http://www.bohemiancoding.com/sketch -->
    <title>multiple-users-silhouette</title>
    <desc>Created with Sketch.</desc>
    <defs></defs>
    <g id="Page-1" stroke="none" stroke-width="1" fill="none" fill-rule="evenodd">
        <g id="STM-v2" transform="translate(-383.000000, -5655.000000)" fill="#FC5F60" fill-rule="nonzero">
            <g id="STATS" transform="translate(0.000000, 5509.000000)">
                <g id="Users" transform="translate(327.000000, 121.000000)">
                    <g id="multiple-users-silhouette" transform="translate(56.000000, 25.000000)">
                        <path d="M23.23309,5.66402207 C25.0132285,6.80083935 26.2614876,8.72457106 26.4887495,10.9575875 C27.2147385,11.303086 28.0204855,11.5017721 28.8747598,11.5017721 C31.9934856,11.5017721 34.5212342,8.92717216 34.5212342,5.75113075 C34.5212342,2.57459997 31.9934856,0 28.8747598,0 C25.785823,0.000978749277 23.280176,2.52957751 23.23309,5.66402207 Z M19.5339573,17.4393546 C22.6526831,17.4393546 25.1804318,14.8642653 25.1804318,11.6882239 C25.1804318,8.51218246 22.6522027,5.93758249 19.5339573,5.93758249 C16.415712,5.93758249 13.8865219,8.51267184 13.8865219,11.6887132 C13.8865219,14.8647546 16.415712,17.4393546 19.5339573,17.4393546 Z M21.9290965,17.8313437 L17.1378572,17.8313437 C13.151404,17.8313437 9.90823662,21.1351119 9.90823662,25.1954533 L9.90823662,31.163377 L9.92313116,31.2568475 L10.3267253,31.3855531 C14.1310807,32.5962659 17.4362286,33 20.1566455,33 C25.4701547,33 28.5499626,31.4570018 28.7397479,31.3586375 L29.1169163,31.1643557 L29.1572757,31.1643557 L29.1572757,25.1954533 C29.1587171,21.1351119 25.9155497,17.8313437 21.9290965,17.8313437 Z M31.2708599,11.8942506 L26.5166167,11.8942506 C26.4652065,13.8316848 25.6532135,15.5763054 24.3689193,16.8310619 C27.9123799,17.9042605 30.5049919,21.2510937 30.5049919,25.204262 L30.5049919,27.0433319 C35.1991763,26.8681358 37.9042181,25.5130574 38.0824722,25.4220337 L38.4596406,25.2272626 L38.5,25.2272626 L38.5,19.2573814 C38.5,15.1975294 35.2568326,11.8942506 31.2708599,11.8942506 Z M9.62620117,11.5027509 C10.7308,11.5027509 11.7585236,11.1743805 12.6291339,10.6150253 C12.9058842,8.77644477 13.8735492,7.16982783 15.2558592,6.07558614 C15.2616249,5.96792372 15.2717147,5.86124005 15.2717147,5.75259888 C15.2717147,2.5760681 12.7434856,0.00146812392 9.62620117,0.00146812392 C6.50699488,0.00146812392 3.97972669,2.5760681 3.97972669,5.75259888 C3.97972669,8.92766153 6.50699488,11.5027509 9.62620117,11.5027509 Z M14.6970735,16.8310619 C13.4190253,15.5826672 12.6099151,13.8473448 12.5508174,11.9216556 C12.3744852,11.9084425 12.2000749,11.8942506 12.0203794,11.8942506 L7.22962062,11.8942506 C3.24316735,11.8942506 0,15.1975294 0,19.2573814 L0,25.2262839 L0.0148945464,25.3182863 L0.418488706,25.4479706 C3.4704293,26.4184005 6.19420941,26.8656889 8.56003994,27.0066288 L8.56003994,25.204262 C8.56100087,21.2510937 11.1526519,17.9052393 14.6970735,16.8310619 Z" id="Shape"></path>
                    </g>
                </g>
            </g>
        </g>
    </g>
</svg>