<svg id="Layer_1" data-name="Layer 1" xmlns="http://www.w3.org/2000/svg" viewBox="0 0 100.03 87.8"><defs><style>.cls-1{fill:#010101;}</style></defs><title>icon_repeat</title><path class="cls-1" d="M95.7,46.7A4.16,4.16,0,0,0,92,51c0,0.1.6,9.8-5.3,16.1C82.8,71.3,76.8,74,68.8,74H22V64c0-.8-1.1-1.5-1.8-1.8a3.34,3.34,0,0,0-2.6.2L0.8,76A1.9,1.9,0,0,0,0,77.5,2,2,0,0,0,.7,79L17.4,92.5a1.92,1.92,0,0,0,1.2.4,7.72,7.72,0,0,0,1.5-.2c0.7-.3,1.8-1,1.8-1.8V81H68.8c10.3,0,18.3-3.1,23.8-9,8.3-8.9,7.4-21.1,7.4-21.6A4.09,4.09,0,0,0,95.7,46.7Z" transform="translate(0 -5.1)"/><path class="cls-1" d="M4.3,51.5A4.16,4.16,0,0,0,8,47.2c0-.1-0.6-9.8,5.3-16.2,3.9-4.2,9.9-7,17.9-7H78V34.2c0,0.8,1.1,1.5,1.8,1.8a3.31,3.31,0,0,0,2.6-.2L99.2,22.3a1.9,1.9,0,0,0,.8-1.5,2,2,0,0,0-.7-1.5L82.6,5.5a1.92,1.92,0,0,0-1.2-.4,6.8,6.8,0,0,0-1.5.2c-0.7.3-1.8,1-1.8,1.8V17H31.2c-10.3,0-18.3,3.2-23.8,9.1C-0.8,35,0,47.3.1,47.8A4,4,0,0,0,4.3,51.5Z" transform="translate(0 -5.1)"/></svg>