<?xml version="1.0" encoding="UTF-8"?>
<svg width="35px" height="35px" viewBox="0 0 35 35" version="1.1" xmlns="http://www.w3.org/2000/svg" xmlns:xlink="http://www.w3.org/1999/xlink">
    <!-- Generator: Sketch 51.1 (57501) - http://www.bohemiancoding.com/sketch -->
    <title>play-button</title>
    <desc>Created with Sketch.</desc>
    <defs></defs>
    <g id="Page-1" stroke="none" stroke-width="1" fill="none" fill-rule="evenodd">
        <g id="STM-v2" transform="translate(-1022.000000, -5656.000000)" fill="#FC5F60" fill-rule="nonzero">
            <g id="STATS" transform="translate(0.000000, 5509.000000)">
                <g id="Users-Copy-3" transform="translate(964.000000, 121.000000)">
                    <g id="play-button" transform="translate(58.000000, 26.000000)">
                        <path d="M17.5,0 C7.8505,0 0,7.8505 0,17.5 C0,27.1495 7.8505,35 17.5,35 C27.1495,35 35,27.1495 35,17.5 C35,7.8505 27.1495,0 17.5,0 Z M26.5784167,17.9818333 L13.7450833,26.7318333 C13.6465,26.7989167 13.5315833,26.8333333 13.4166667,26.8333333 C13.3233333,26.8333333 13.2294167,26.8111667 13.14425,26.7656667 C12.9529167,26.66475 12.8333333,26.4664167 12.8333333,26.25 L12.8333333,8.75 C12.8333333,8.53358333 12.9529167,8.33525 13.14425,8.23433333 C13.3355833,8.13283333 13.5665833,8.14683333 13.7456667,8.26816667 L26.579,17.0181667 C26.7376667,17.1266667 26.8333333,17.3069167 26.8333333,17.5 C26.8333333,17.6930833 26.7376667,17.8733333 26.5784167,17.9818333 Z" id="Shape"></path>
                    </g>
                </g>
            </g>
        </g>
    </g>
</svg>