<?xml version="1.0" encoding="UTF-8"?>
<svg width="47px" height="33px" viewBox="0 0 47 33" version="1.1" xmlns="http://www.w3.org/2000/svg" xmlns:xlink="http://www.w3.org/1999/xlink">
    <!-- Generator: Sketch 51.1 (57501) - http://www.bohemiancoding.com/sketch -->
    <title>Shape</title>
    <desc>Created with Sketch.</desc>
    <defs></defs>
    <g id="Page-1" stroke="none" stroke-width="1" fill="none" fill-rule="evenodd">
        <g id="STM-v2" transform="translate(-807.000000, -5654.000000)" fill="#FC5F60" fill-rule="nonzero">
            <g id="STATS" transform="translate(0.000000, 5509.000000)">
                <g id="Users-Copy-2" transform="translate(752.000000, 117.000000)">
                    <path d="M92.5127042,39.6834272 C91.8828854,33.1366183 86.4321602,28 79.7230815,28 C74.5291631,28 70.0843182,31.0818426 68.0353207,35.5038959 C67.4168977,35.3072781 66.7755226,35.1738991 66.0940215,35.1738991 C62.5285795,35.1738991 59.6375765,38.0663466 59.6375765,41.6303441 C59.6375765,42.3391309 59.7796228,43.0092363 59.9905254,43.6448332 C57.2157275,45.2619138 55.3333333,48.2304404 55.3333333,51.67101 C55.3333333,56.8219132 59.508531,60.9971109 64.6594342,60.9971109 L64.6594342,61 L90.4853747,61 L90.4853747,60.9971109 C96.4296505,60.9971109 101.243334,56.1805381 101.243334,50.2362623 C101.24189,44.9906616 97.4841636,40.6332915 92.5127042,39.6834272 Z M85.129347,48.9807979 L79.704463,54.3281583 C78.6096633,55.4256865 77.9353849,55.3898941 76.8722046,54.3281583 L71.4473206,48.9807979 C70.6696773,47.7110485 71.3052743,46.6722649 72.8634498,46.6722649 L75.4188383,46.6722649 L75.4188383,40.9159395 C75.4188383,40.1225669 76.061658,39.4783027 76.8535861,39.4783027 L79.7230815,39.4783027 C80.5164541,39.4783027 81.1578292,40.1225669 81.1578292,40.9159395 L81.1578292,46.6722649 L83.7103287,46.6722649 C85.2685042,46.6722649 85.9084347,47.7110485 85.129347,48.9807979 Z" id="Shape"></path>
                </g>
            </g>
        </g>
    </g>
</svg>