<svg id="Layer_1" data-name="Layer 1" xmlns="http://www.w3.org/2000/svg" viewBox="0 0 93.32 100"><defs><style>.cls-1{fill:#fff;}</style></defs><title>icon_volume</title><polygon class="cls-1" points="0 37.46 0 62.54 22.08 62.54 39.13 79.6 39.13 20.4 22.08 37.46 0 37.46"/><path class="cls-1" d="M63.22,50h0A40.47,40.47,0,0,0,51.87,21.63c-2.66-2.83-6.91,1.43-4.26,4.26C54.1,32.79,57.06,40.56,57.2,50c-0.14,9.44-3.09,17.21-9.58,24.11-2.66,2.83,1.59,7.09,4.26,4.26A40.47,40.47,0,0,0,63.22,50h0Z" transform="translate(0 0)"/><path class="cls-1" d="M78.27,50h0C78.06,35.23,73,22,62.79,11.28c-2.68-2.82-6.94,1.45-4.26,4.26C67.65,25.09,72.06,36.82,72.25,50c-0.19,13.18-4.6,24.91-13.71,34.47-2.68,2.81,1.57,7.07,4.26,4.26C73,78,78.06,64.76,78.27,50h0Z" transform="translate(0 0)"/><path class="cls-1" d="M93.32,50h0C93.11,31.42,86.61,14.33,73.71.92,71-1.89,66.77,2.38,69.46,5.17,81.26,17.45,87.11,33,87.3,50c-0.19,17-6,32.55-17.84,44.83-2.69,2.8,1.56,7.06,4.26,4.26C86.61,85.67,93.11,68.58,93.32,50h0Z" transform="translate(0 0)"/></svg>