<svg id="Layer_1" data-name="Layer 1" xmlns="http://www.w3.org/2000/svg" viewBox="0 0 66.35 58.2"><title>icon_heart</title><path d="M32.45,57.8h0a1.23,1.23,0,0,0,.8.4h0a0.91,0.91,0,0,0,.7-0.3l27.1-27.1a17.86,17.86,0,0,0,5.3-12.7,18.19,18.19,0,0,0-5.2-12.7,17.87,17.87,0,0,0-25.4,0l-2.5,2.5-2.6-2.6A17.86,17.86,0,0,0,18,0,18.19,18.19,0,0,0,5.25,5.2a18,18,0,0,0,0,25.4ZM6.75,6.7a15.7,15.7,0,0,1,22.5.1l3.3,3.3a1,1,0,0,0,1.4,0l3.2-3.2a15.95,15.95,0,0,1,27.2,11.3,16.24,16.24,0,0,1-4.7,11.3L33.25,55.7,6.75,29.2A15.93,15.93,0,0,1,6.75,6.7Z"/></svg>