<svg id="Layer_1" data-name="Layer 1" xmlns="http://www.w3.org/2000/svg" viewBox="0 0 137.48 153.3"><defs><style>.cls-1{fill:#eb1c22;}</style></defs><title>icon_free-music</title><path d="M88.85 129.26H52.08a2.5 2.5 0 0 1-2.48-2.8c2.38-19.6-8.19-31.25-8.3-31.37a2.51 2.51 0 0 1-.5-.81 35.44 35.44 0 1 1 57.9 2.49c-.28.49-.59 1-.93 1.59-3.06 5.16-8.17 13.8-6.44 28.1a2.5 2.5 0 0 1-2.48 2.8zm-34-5H86.1c-1-14.32 4.19-23.08 7.37-28.45.35-.6.68-1.15 1-1.65a2.55 2.55 0 0 1 .21-.31 30.13 30.13 0 0 0 6.42-18.68A30.43 30.43 0 1 0 45.26 92l.1.17c2.06 2.39 10.74 13.77 9.47 32.09z"/><path d="M66.47 128a2.5 2.5 0 0 1-2.47-2.35 230.47 230.47 0 0 0-9.18-49.35v-.05a2.5 2.5 0 0 1 4.76-1.54C60.56 77.75 65 80 70 80s9.45-2.28 10.42-5.3a2.5 2.5 0 0 1 4.76 1.52C83.52 81.41 77.27 85 70 85a20.22 20.22 0 0 1-8-1.57 239.54 239.54 0 0 1 7 41.87 2.5 2.5 0 0 1-2.35 2.7h-.18z"/><path d="M73.51 128h-.18a2.5 2.5 0 0 1-2.33-2.7 236 236 0 0 1 9.4-50.6 2.5 2.5 0 0 1 4.75 1.55 230.62 230.62 0 0 0-9.15 49.4 2.5 2.5 0 0 1-2.49 2.35z"/><path class="cls-1" d="M13.63 116.27a2.5 2.5 0 0 1-.81-4.87l19.66-6.71a2.5 2.5 0 0 1 1.62 4.73l-19.66 6.71a2.51 2.51 0 0 1-.81.14zM23.81 51.19a2.49 2.49 0 0 1-.76-.12L1.74 44.31a2.5 2.5 0 1 1 1.51-4.77l21.31 6.76a2.5 2.5 0 0 1-.75 4.89zM124.8 116.27a2.51 2.51 0 0 1-.81-.13l-19.66-6.71a2.5 2.5 0 0 1 1.62-4.73l19.66 6.71a2.5 2.5 0 0 1-.81 4.86zM113.67 51.19a2.5 2.5 0 0 1-.75-4.88l21.3-6.76a2.5 2.5 0 0 1 1.51 4.77l-21.3 6.76a2.49 2.49 0 0 1-.76.11zM70.95 23.46a2.5 2.5 0 0 1-2.5-2.5V2.5a2.5 2.5 0 1 1 5 0V21a2.5 2.5 0 0 1-2.5 2.46z"/><path d="M88.24 141.3h-35a2.5 2.5 0 0 1 0-5h35a2.5 2.5 0 0 1 0 5zM83 153.3H58.49a2.5 2.5 0 0 1 0-5H83a2.5 2.5 0 0 1 0 5z"/></svg>