<svg id="Layer_1" data-name="Layer 1" xmlns="http://www.w3.org/2000/svg" viewBox="0 0 32 32"><defs><style>.cls-1{fill:#fff;}</style></defs><title>icon_tracks</title><path class="cls-1" d="M16 19a9 9 0 0 1-9-9V0h18v10a9 9 0 0 1-9 9zM9 2v8a7 7 0 0 0 14 0V2H9z"/><path class="cls-1" d="M16 15a5 5 0 0 1-5-5V5h2v5a3 3 0 0 0 3 3v2zM15 23.5h2V31h-2v-7.5z"/><path class="cls-1" d="M7 30h18v2H7v-2zM27 10V8a3 3 0 0 0 3-3V4h-3V2h5v3a5 5 0 0 1-5 5zM5 10a5 5 0 0 1-5-5V2h5v2H2v1a3 3 0 0 0 3 3v2zM16 25a4 4 0 0 1-4-4h2a2 2 0 0 0 4 0h2a4 4 0 0 1-4 4z"/></svg>