<svg id="Layer_1" data-name="Layer 1" xmlns="http://www.w3.org/2000/svg" viewBox="0 0 202.34 137.57"><defs><style>.cls-1{fill:#eb1c22;}</style></defs><title>icon_music-videos</title><path d="M116.15 137.57H67.47a5.22 5.22 0 0 1-5.21-5.22v-22.69a28.59 28.59 0 0 1 20.58-27.25v-3.55A21 21 0 0 1 75.28 70c-3.94-.56-6.9-4.67-6.9-9.81 0-4.62 2.43-8.43 5.8-9.54 2.82-8.59 9.75-14.26 17.63-14.26s14.8 5.68 17.63 14.28c3.37 1.11 5.8 4.92 5.8 9.54 0 5.14-3 9.24-6.9 9.81a21 21 0 0 1-7.56 8.85v3.55a28.57 28.57 0 0 1 20.59 27.19v22.75a5.22 5.22 0 0 1-5.22 5.21zM76.93 65a2.5 2.5 0 0 1 2.33 1.6 16 16 0 0 0 7.24 8.6 2.5 2.5 0 0 1 1.34 2.22v6.9a2.5 2.5 0 0 1-1.93 2.43c-11 2.59-18.66 12-18.66 22.84v22.75a.22.22 0 0 0 .21.22h48.68a.22.22 0 0 0 .21-.22v-22.67-.13c0-10.8-7.67-20.19-18.66-22.78a2.5 2.5 0 0 1-1.93-2.43v-6.9a2.5 2.5 0 0 1 1.34-2.22 16 16 0 0 0 7.24-8.6 2.5 2.5 0 0 1 2.78-1.56 1.47 1.47 0 0 0 .26 0c1.34 0 2.83-2.08 2.83-4.87s-1.48-4.84-2.81-4.87a2.5 2.5 0 0 1-2.37-1.87c-1.89-7.23-7.22-12.09-13.25-12.09s-11.32 4.9-13.22 12.13a2.5 2.5 0 0 1-2.37 1.87c-1.33 0-2.81 2-2.81 4.87s1.49 4.87 2.83 4.87a1.46 1.46 0 0 0 .26 0 2.5 2.5 0 0 1 .46-.09z"/><path d="M145 125.71h-16.83a2.5 2.5 0 0 1 0-5H145a.08.08 0 0 0 .08-.09V99.06a22.4 22.4 0 0 0-17.64-21.65 2.5 2.5 0 0 1-1.95-2.41v-6.58a2.5 2.5 0 0 1 1.34-2.22 15.09 15.09 0 0 0 6.83-8.11 2.5 2.5 0 0 1 2.79-1.56c1.25.23 2.79-1.73 2.79-4.48 0-2.55-1.34-4.48-2.54-4.5a2.5 2.5 0 0 1-2.37-1.87c-1.79-6.82-6.8-11.4-12.47-11.4-4.13 0-7.95 2.41-10.47 6.61a2.5 2.5 0 1 1-4.29-2.57c3.39-5.66 8.91-9 14.76-9 7.52 0 14.13 5.4 16.86 13.6 3.22 1.1 5.53 4.75 5.53 9.17 0 4.92-2.83 8.86-6.6 9.44a20.07 20.07 0 0 1-7.15 8.36v3.21A27.28 27.28 0 0 1 150.06 99v21.62a5.09 5.09 0 0 1-5.06 5.09z"/><path class="cls-1" d="M156.89 60.31a2.5 2.5 0 0 1-1.81-4.23c2.1-2.2 3.24-5.14 4.44-8.26l.55-1.4c-10.76-3.4-17.32-11.65-17.32-22.08C142.76 10.92 156.12 0 172.55 0s29.79 10.92 29.79 24.34-8 21.84-22.65 23.78c-6.14 6.27-17.44 10.51-20.85 11.69l-.94.3-.28.08a2.51 2.51 0 0 1-.73.12zM172.55 5c-13.67 0-24.79 8.68-24.79 19.34 0 9 6.08 15.71 16.28 18a2.5 2.5 0 0 1 1.73 3.48c-.57 1.25-1.08 2.57-1.57 3.84-.42 1.07-.84 2.16-1.3 3.24 5.32-2.33 10.74-5.43 13.74-8.78a2.5 2.5 0 0 1 1.59-.82c12.69-1.43 19.13-7.8 19.13-18.93C197.34 13.68 186.22 5 172.55 5zM54.89 65.31a2.51 2.51 0 0 1-.66-.09l-.31-.08-1.15-.33c-4-1.23-17.18-5.67-24.65-12.59C12.52 51.41 0 40 0 26.32 0 11.81 16.06 0 35.79 0s35.79 11.81 35.79 26.32c0 12.12-8.61 21.15-22.72 24.16a43.51 43.51 0 0 0 7.56 10.35 2.5 2.5 0 0 1-1.49 4.49zM35.79 5C18.81 5 5 14.56 5 26.32 5 37.37 16.09 47 29.21 47.26a2.5 2.5 0 0 1 1.71.73c3.74 3.74 10.16 7.1 16.4 9.6a77.85 77.85 0 0 1-4.52-7.85 2.5 2.5 0 0 1 1.89-3.61c13.7-1.85 21.88-9.25 21.88-19.8C66.58 14.56 52.77 5 35.79 5z"/></svg>