<svg id="Layer_1" data-name="Layer 1" xmlns="http://www.w3.org/2000/svg" viewBox="0 0 32.1 31.68"><defs><style>.cls-1{fill:#fff;}</style></defs><title>icon_artists</title><path class="cls-1" d="M22.43 23.26l-7.38-7.16V5.68h2v9.58l6.77 6.57zM16.13 31.67A16 16 0 0 1 4.79 27l1.41-1.41a14 14 0 0 0 17.62 1.78L24.93 29a15.91 15.91 0 0 1-8.8 2.67zM29.45 24.5l-1.67-1.1A14 14 0 0 0 26 5.78l1.41-1.41a16 16 0 0 1 2.04 20.13z"/><path class="cls-1" d="M32.1 15.69h-2A14.1 14.1 0 0 0 18.8 2l.4-2a16.1 16.1 0 0 1 12.9 15.69zM16 31.68A16 16 0 0 1 12.8 0l.4 2A14 14 0 0 0 16 29.68v2z"/></svg>